<mxfile host="app.diagrams.net" agent="Mozilla/5.0 (Windows NT 10.0; Win64; x64) AppleWebKit/537.36 (KHTML, like Gecko) Chrome/132.0.0.0 Safari/537.36 OPR/117.0.0.0" version="26.2.2">
  <diagram name="Page-1" id="e7e014a7-5840-1c2e-5031-d8a46d1fe8dd">
    <mxGraphModel dx="2027" dy="1117" grid="1" gridSize="10" guides="1" tooltips="1" connect="1" arrows="1" fold="1" page="1" pageScale="1" pageWidth="1169" pageHeight="826" background="none" math="0" shadow="0">
      <root>
        <mxCell id="0" />
        <mxCell id="1" parent="0" />
        <mxCell id="F7s2ausXQMvFZWRs2rys-42" value="" style="shape=table;startSize=0;container=1;collapsible=0;childLayout=tableLayout;fontSize=16;" vertex="1" parent="1">
          <mxGeometry x="170" y="40" width="750" height="210" as="geometry" />
        </mxCell>
        <mxCell id="F7s2ausXQMvFZWRs2rys-43" value="" style="shape=tableRow;horizontal=0;startSize=0;swimlaneHead=0;swimlaneBody=0;strokeColor=inherit;top=0;left=0;bottom=0;right=0;collapsible=0;dropTarget=0;fillColor=none;points=[[0,0.5],[1,0.5]];portConstraint=eastwest;fontSize=16;" vertex="1" parent="F7s2ausXQMvFZWRs2rys-42">
          <mxGeometry width="750" height="69" as="geometry" />
        </mxCell>
        <mxCell id="F7s2ausXQMvFZWRs2rys-44" value="&lt;div style=&quot;text-align: left;&quot;&gt;&lt;span style=&quot;background-color: transparent; color: light-dark(rgb(0, 0, 0), rgb(255, 255, 255));&quot;&gt;Clase&lt;/span&gt;&lt;/div&gt;" style="shape=partialRectangle;html=1;whiteSpace=wrap;connectable=0;strokeColor=inherit;overflow=hidden;fillColor=none;top=0;left=0;bottom=0;right=0;pointerEvents=1;fontSize=16;" vertex="1" parent="F7s2ausXQMvFZWRs2rys-43">
          <mxGeometry width="249" height="69" as="geometry">
            <mxRectangle width="249" height="69" as="alternateBounds" />
          </mxGeometry>
        </mxCell>
        <mxCell id="F7s2ausXQMvFZWRs2rys-45" value="&#xa;&lt;table&gt;&lt;tbody&gt;&lt;tr&gt;&lt;th data-end=&quot;283&quot; data-start=&quot;230&quot;&gt;&lt;strong data-end=&quot;245&quot; data-start=&quot;232&quot;&gt;Atributos&lt;/strong&gt;&lt;/th&gt;&lt;/tr&gt;&lt;/tbody&gt;&lt;/table&gt;&lt;table&gt;&lt;tbody&gt;&lt;tr&gt;&lt;th data-end=&quot;335&quot; data-start=&quot;283&quot;&gt;&lt;/th&gt;&lt;/tr&gt;&lt;/tbody&gt;&lt;/table&gt;&#xa;&#xa;" style="shape=partialRectangle;html=1;whiteSpace=wrap;connectable=0;strokeColor=inherit;overflow=hidden;fillColor=none;top=0;left=0;bottom=0;right=0;pointerEvents=1;fontSize=16;" vertex="1" parent="F7s2ausXQMvFZWRs2rys-43">
          <mxGeometry x="249" width="252" height="69" as="geometry">
            <mxRectangle width="252" height="69" as="alternateBounds" />
          </mxGeometry>
        </mxCell>
        <mxCell id="F7s2ausXQMvFZWRs2rys-46" value="&#xa;Métodos&#xa;&#xa;" style="shape=partialRectangle;html=1;whiteSpace=wrap;connectable=0;strokeColor=inherit;overflow=hidden;fillColor=none;top=0;left=0;bottom=0;right=0;pointerEvents=1;fontSize=16;" vertex="1" parent="F7s2ausXQMvFZWRs2rys-43">
          <mxGeometry x="501" width="249" height="69" as="geometry">
            <mxRectangle width="249" height="69" as="alternateBounds" />
          </mxGeometry>
        </mxCell>
        <mxCell id="F7s2ausXQMvFZWRs2rys-47" value="" style="shape=tableRow;horizontal=0;startSize=0;swimlaneHead=0;swimlaneBody=0;strokeColor=inherit;top=0;left=0;bottom=0;right=0;collapsible=0;dropTarget=0;fillColor=none;points=[[0,0.5],[1,0.5]];portConstraint=eastwest;fontSize=16;" vertex="1" parent="F7s2ausXQMvFZWRs2rys-42">
          <mxGeometry y="69" width="750" height="61" as="geometry" />
        </mxCell>
        <mxCell id="F7s2ausXQMvFZWRs2rys-48" value="&#xa;Usuario&#xa;&#xa;" style="shape=partialRectangle;html=1;whiteSpace=wrap;connectable=0;strokeColor=inherit;overflow=hidden;fillColor=none;top=0;left=0;bottom=0;right=0;pointerEvents=1;fontSize=16;" vertex="1" parent="F7s2ausXQMvFZWRs2rys-47">
          <mxGeometry width="249" height="61" as="geometry">
            <mxRectangle width="249" height="61" as="alternateBounds" />
          </mxGeometry>
        </mxCell>
        <mxCell id="F7s2ausXQMvFZWRs2rys-49" value="id, nombre, apellido, email, contraseña" style="shape=partialRectangle;html=1;whiteSpace=wrap;connectable=0;strokeColor=inherit;overflow=hidden;fillColor=none;top=0;left=0;bottom=0;right=0;pointerEvents=1;fontSize=16;" vertex="1" parent="F7s2ausXQMvFZWRs2rys-47">
          <mxGeometry x="249" width="252" height="61" as="geometry">
            <mxRectangle width="252" height="61" as="alternateBounds" />
          </mxGeometry>
        </mxCell>
        <mxCell id="F7s2ausXQMvFZWRs2rys-50" value="&lt;table&gt;&lt;tbody&gt;&lt;tr data-end=&quot;600&quot; data-start=&quot;467&quot;&gt;&lt;td&gt;registrar(), iniciarSesion(), cerrarSesion()&lt;/td&gt;&lt;/tr&gt;&lt;/tbody&gt;&lt;/table&gt;&lt;table&gt;&lt;tbody&gt;&lt;tr data-end=&quot;735&quot; data-start=&quot;601&quot;&gt;&lt;td&gt;&lt;/td&gt;&lt;/tr&gt;&lt;/tbody&gt;&lt;/table&gt;" style="shape=partialRectangle;html=1;whiteSpace=wrap;connectable=0;strokeColor=inherit;overflow=hidden;fillColor=none;top=0;left=0;bottom=0;right=0;pointerEvents=1;fontSize=16;" vertex="1" parent="F7s2ausXQMvFZWRs2rys-47">
          <mxGeometry x="501" width="249" height="61" as="geometry">
            <mxRectangle width="249" height="61" as="alternateBounds" />
          </mxGeometry>
        </mxCell>
        <mxCell id="F7s2ausXQMvFZWRs2rys-51" value="" style="shape=tableRow;horizontal=0;startSize=0;swimlaneHead=0;swimlaneBody=0;strokeColor=inherit;top=0;left=0;bottom=0;right=0;collapsible=0;dropTarget=0;fillColor=none;points=[[0,0.5],[1,0.5]];portConstraint=eastwest;fontSize=16;" vertex="1" parent="F7s2ausXQMvFZWRs2rys-42">
          <mxGeometry y="130" width="750" height="80" as="geometry" />
        </mxCell>
        <mxCell id="F7s2ausXQMvFZWRs2rys-52" value="Paciente" style="shape=partialRectangle;html=1;whiteSpace=wrap;connectable=0;strokeColor=inherit;overflow=hidden;fillColor=none;top=0;left=0;bottom=0;right=0;pointerEvents=1;fontSize=16;" vertex="1" parent="F7s2ausXQMvFZWRs2rys-51">
          <mxGeometry width="249" height="80" as="geometry">
            <mxRectangle width="249" height="80" as="alternateBounds" />
          </mxGeometry>
        </mxCell>
        <mxCell id="F7s2ausXQMvFZWRs2rys-53" value="&#xa;dni, fechaNacimiento, historialMedico&#xa;&#xa;" style="shape=partialRectangle;html=1;whiteSpace=wrap;connectable=0;strokeColor=inherit;overflow=hidden;fillColor=none;top=0;left=0;bottom=0;right=0;pointerEvents=1;fontSize=16;" vertex="1" parent="F7s2ausXQMvFZWRs2rys-51">
          <mxGeometry x="249" width="252" height="80" as="geometry">
            <mxRectangle width="252" height="80" as="alternateBounds" />
          </mxGeometry>
        </mxCell>
        <mxCell id="F7s2ausXQMvFZWRs2rys-54" value="&lt;table&gt;&lt;tbody&gt;&lt;tr data-end=&quot;735&quot; data-start=&quot;601&quot;&gt;&lt;td&gt;solicitarTurno(), cancelarTurno(), verHistorial()&lt;/td&gt;&lt;/tr&gt;&lt;/tbody&gt;&lt;/table&gt;&lt;table&gt;&lt;tbody&gt;&lt;tr data-end=&quot;882&quot; data-start=&quot;736&quot;&gt;&lt;td&gt;&lt;/td&gt;&lt;/tr&gt;&lt;/tbody&gt;&lt;/table&gt;" style="shape=partialRectangle;html=1;whiteSpace=wrap;connectable=0;strokeColor=inherit;overflow=hidden;fillColor=none;top=0;left=0;bottom=0;right=0;pointerEvents=1;fontSize=16;" vertex="1" parent="F7s2ausXQMvFZWRs2rys-51">
          <mxGeometry x="501" width="249" height="80" as="geometry">
            <mxRectangle width="249" height="80" as="alternateBounds" />
          </mxGeometry>
        </mxCell>
        <mxCell id="F7s2ausXQMvFZWRs2rys-70" value="" style="shape=table;startSize=0;container=1;collapsible=0;childLayout=tableLayout;fontSize=16;" vertex="1" parent="1">
          <mxGeometry x="170" y="480" width="750" height="230" as="geometry" />
        </mxCell>
        <mxCell id="F7s2ausXQMvFZWRs2rys-71" value="" style="shape=tableRow;horizontal=0;startSize=0;swimlaneHead=0;swimlaneBody=0;strokeColor=inherit;top=0;left=0;bottom=0;right=0;collapsible=0;dropTarget=0;fillColor=none;points=[[0,0.5],[1,0.5]];portConstraint=eastwest;fontSize=16;" vertex="1" parent="F7s2ausXQMvFZWRs2rys-70">
          <mxGeometry width="750" height="77" as="geometry" />
        </mxCell>
        <mxCell id="F7s2ausXQMvFZWRs2rys-72" value="Historial Medico" style="shape=partialRectangle;html=1;whiteSpace=wrap;connectable=0;strokeColor=inherit;overflow=hidden;fillColor=none;top=0;left=0;bottom=0;right=0;pointerEvents=1;fontSize=16;" vertex="1" parent="F7s2ausXQMvFZWRs2rys-71">
          <mxGeometry width="250" height="77" as="geometry">
            <mxRectangle width="250" height="77" as="alternateBounds" />
          </mxGeometry>
        </mxCell>
        <mxCell id="F7s2ausXQMvFZWRs2rys-73" value="&lt;table&gt;&lt;tbody&gt;&lt;tr&gt;&lt;td&gt;id, paciente, registros&lt;/td&gt;&lt;/tr&gt;&lt;/tbody&gt;&lt;/table&gt;&lt;table&gt;&lt;tbody&gt;&lt;tr&gt;&lt;td&gt;&lt;/td&gt;&lt;/tr&gt;&lt;/tbody&gt;&lt;/table&gt;" style="shape=partialRectangle;html=1;whiteSpace=wrap;connectable=0;strokeColor=inherit;overflow=hidden;fillColor=none;top=0;left=0;bottom=0;right=0;pointerEvents=1;fontSize=16;" vertex="1" parent="F7s2ausXQMvFZWRs2rys-71">
          <mxGeometry x="250" width="250" height="77" as="geometry">
            <mxRectangle width="250" height="77" as="alternateBounds" />
          </mxGeometry>
        </mxCell>
        <mxCell id="F7s2ausXQMvFZWRs2rys-74" value="&lt;table&gt;&lt;tbody&gt;&lt;tr data-end=&quot;1253&quot; data-start=&quot;1131&quot;&gt;&lt;td&gt;agregarRegistro(), obtenerRegistros()&lt;/td&gt;&lt;/tr&gt;&lt;/tbody&gt;&lt;/table&gt;&lt;table&gt;&lt;tbody&gt;&lt;tr data-end=&quot;1355&quot; data-start=&quot;1254&quot;&gt;&lt;td&gt;&lt;/td&gt;&lt;/tr&gt;&lt;/tbody&gt;&lt;/table&gt;" style="shape=partialRectangle;html=1;whiteSpace=wrap;connectable=0;strokeColor=inherit;overflow=hidden;fillColor=none;top=0;left=0;bottom=0;right=0;pointerEvents=1;fontSize=16;" vertex="1" parent="F7s2ausXQMvFZWRs2rys-71">
          <mxGeometry x="500" width="250" height="77" as="geometry">
            <mxRectangle width="250" height="77" as="alternateBounds" />
          </mxGeometry>
        </mxCell>
        <mxCell id="F7s2ausXQMvFZWRs2rys-75" value="" style="shape=tableRow;horizontal=0;startSize=0;swimlaneHead=0;swimlaneBody=0;strokeColor=inherit;top=0;left=0;bottom=0;right=0;collapsible=0;dropTarget=0;fillColor=none;points=[[0,0.5],[1,0.5]];portConstraint=eastwest;fontSize=16;" vertex="1" parent="F7s2ausXQMvFZWRs2rys-70">
          <mxGeometry y="77" width="750" height="76" as="geometry" />
        </mxCell>
        <mxCell id="F7s2ausXQMvFZWRs2rys-76" value="&lt;br&gt;Registro Historial&lt;div&gt;&lt;br/&gt;&lt;/div&gt;" style="shape=partialRectangle;html=1;whiteSpace=wrap;connectable=0;strokeColor=inherit;overflow=hidden;fillColor=none;top=0;left=0;bottom=0;right=0;pointerEvents=1;fontSize=16;" vertex="1" parent="F7s2ausXQMvFZWRs2rys-75">
          <mxGeometry width="250" height="76" as="geometry">
            <mxRectangle width="250" height="76" as="alternateBounds" />
          </mxGeometry>
        </mxCell>
        <mxCell id="F7s2ausXQMvFZWRs2rys-77" value="fecha, descripción, médico" style="shape=partialRectangle;html=1;whiteSpace=wrap;connectable=0;strokeColor=inherit;overflow=hidden;fillColor=none;top=0;left=0;bottom=0;right=0;pointerEvents=1;fontSize=16;" vertex="1" parent="F7s2ausXQMvFZWRs2rys-75">
          <mxGeometry x="250" width="250" height="76" as="geometry">
            <mxRectangle width="250" height="76" as="alternateBounds" />
          </mxGeometry>
        </mxCell>
        <mxCell id="F7s2ausXQMvFZWRs2rys-78" value="&lt;table&gt;&lt;tbody&gt;&lt;tr data-end=&quot;1355&quot; data-start=&quot;1254&quot;&gt;&lt;td&gt;obtenerDetalles()&lt;/td&gt;&lt;/tr&gt;&lt;/tbody&gt;&lt;/table&gt;&lt;table&gt;&lt;tbody&gt;&lt;tr data-end=&quot;1483&quot; data-start=&quot;1356&quot;&gt;&lt;td&gt;&lt;/td&gt;&lt;/tr&gt;&lt;/tbody&gt;&lt;/table&gt;" style="shape=partialRectangle;html=1;whiteSpace=wrap;connectable=0;strokeColor=inherit;overflow=hidden;fillColor=none;top=0;left=0;bottom=0;right=0;pointerEvents=1;fontSize=16;" vertex="1" parent="F7s2ausXQMvFZWRs2rys-75">
          <mxGeometry x="500" width="250" height="76" as="geometry">
            <mxRectangle width="250" height="76" as="alternateBounds" />
          </mxGeometry>
        </mxCell>
        <mxCell id="F7s2ausXQMvFZWRs2rys-79" value="" style="shape=tableRow;horizontal=0;startSize=0;swimlaneHead=0;swimlaneBody=0;strokeColor=inherit;top=0;left=0;bottom=0;right=0;collapsible=0;dropTarget=0;fillColor=none;points=[[0,0.5],[1,0.5]];portConstraint=eastwest;fontSize=16;" vertex="1" parent="F7s2ausXQMvFZWRs2rys-70">
          <mxGeometry y="153" width="750" height="77" as="geometry" />
        </mxCell>
        <mxCell id="F7s2ausXQMvFZWRs2rys-80" value="&lt;br&gt;Sistema Gestión Turnos&lt;div&gt;&lt;br/&gt;&lt;/div&gt;" style="shape=partialRectangle;html=1;whiteSpace=wrap;connectable=0;strokeColor=inherit;overflow=hidden;fillColor=none;top=0;left=0;bottom=0;right=0;pointerEvents=1;fontSize=16;" vertex="1" parent="F7s2ausXQMvFZWRs2rys-79">
          <mxGeometry width="250" height="77" as="geometry">
            <mxRectangle width="250" height="77" as="alternateBounds" />
          </mxGeometry>
        </mxCell>
        <mxCell id="F7s2ausXQMvFZWRs2rys-81" value="Nada" style="shape=partialRectangle;html=1;whiteSpace=wrap;connectable=0;strokeColor=inherit;overflow=hidden;fillColor=none;top=0;left=0;bottom=0;right=0;pointerEvents=1;fontSize=16;" vertex="1" parent="F7s2ausXQMvFZWRs2rys-79">
          <mxGeometry x="250" width="250" height="77" as="geometry">
            <mxRectangle width="250" height="77" as="alternateBounds" />
          </mxGeometry>
        </mxCell>
        <mxCell id="F7s2ausXQMvFZWRs2rys-82" value="&lt;div class=&quot;overflow-x-auto contain-inline-size&quot;&gt;&lt;table data-end=&quot;1483&quot; data-start=&quot;201&quot;&gt;&lt;tbody data-end=&quot;1483&quot; data-start=&quot;467&quot;&gt;&lt;tr data-end=&quot;1483&quot; data-start=&quot;1356&quot;&gt;&lt;td&gt;buscarTurnosDisponibles(), generarReporte()&lt;/td&gt;&lt;/tr&gt;&lt;/tbody&gt;&lt;/table&gt;&lt;/div&gt;" style="shape=partialRectangle;html=1;whiteSpace=wrap;connectable=0;strokeColor=inherit;overflow=hidden;fillColor=none;top=0;left=0;bottom=0;right=0;pointerEvents=1;fontSize=16;" vertex="1" parent="F7s2ausXQMvFZWRs2rys-79">
          <mxGeometry x="500" width="250" height="77" as="geometry">
            <mxRectangle width="250" height="77" as="alternateBounds" />
          </mxGeometry>
        </mxCell>
        <mxCell id="F7s2ausXQMvFZWRs2rys-83" value="" style="shape=table;startSize=0;container=1;collapsible=0;childLayout=tableLayout;fontSize=16;" vertex="1" parent="1">
          <mxGeometry x="170" y="250" width="750" height="230" as="geometry" />
        </mxCell>
        <mxCell id="F7s2ausXQMvFZWRs2rys-84" value="" style="shape=tableRow;horizontal=0;startSize=0;swimlaneHead=0;swimlaneBody=0;strokeColor=inherit;top=0;left=0;bottom=0;right=0;collapsible=0;dropTarget=0;fillColor=none;points=[[0,0.5],[1,0.5]];portConstraint=eastwest;fontSize=16;" vertex="1" parent="F7s2ausXQMvFZWRs2rys-83">
          <mxGeometry width="750" height="77" as="geometry" />
        </mxCell>
        <mxCell id="F7s2ausXQMvFZWRs2rys-85" value="&lt;strong data-end=&quot;748&quot; data-start=&quot;738&quot;&gt;Médico&lt;/strong&gt;" style="shape=partialRectangle;html=1;whiteSpace=wrap;connectable=0;strokeColor=inherit;overflow=hidden;fillColor=none;top=0;left=0;bottom=0;right=0;pointerEvents=1;fontSize=16;" vertex="1" parent="F7s2ausXQMvFZWRs2rys-84">
          <mxGeometry width="251" height="77" as="geometry">
            <mxRectangle width="251" height="77" as="alternateBounds" />
          </mxGeometry>
        </mxCell>
        <mxCell id="F7s2ausXQMvFZWRs2rys-86" value="especialidad, matrícula, horarioAtención" style="shape=partialRectangle;html=1;whiteSpace=wrap;connectable=0;strokeColor=inherit;overflow=hidden;fillColor=none;top=0;left=0;bottom=0;right=0;pointerEvents=1;fontSize=16;" vertex="1" parent="F7s2ausXQMvFZWRs2rys-84">
          <mxGeometry x="251" width="248" height="77" as="geometry">
            <mxRectangle width="248" height="77" as="alternateBounds" />
          </mxGeometry>
        </mxCell>
        <mxCell id="F7s2ausXQMvFZWRs2rys-87" value="&lt;table&gt;&lt;tbody&gt;&lt;tr data-end=&quot;882&quot; data-start=&quot;736&quot;&gt;&lt;td&gt;atenderPaciente(), asignarDiagnóstico(), recetarMedicamento()&lt;/td&gt;&lt;/tr&gt;&lt;/tbody&gt;&lt;/table&gt;&lt;table&gt;&lt;tbody&gt;&lt;tr data-end=&quot;1005&quot; data-start=&quot;883&quot;&gt;&lt;td&gt;&lt;/td&gt;&lt;/tr&gt;&lt;/tbody&gt;&lt;/table&gt;" style="shape=partialRectangle;html=1;whiteSpace=wrap;connectable=0;strokeColor=inherit;overflow=hidden;fillColor=none;top=0;left=0;bottom=0;right=0;pointerEvents=1;fontSize=16;" vertex="1" parent="F7s2ausXQMvFZWRs2rys-84">
          <mxGeometry x="499" width="251" height="77" as="geometry">
            <mxRectangle width="251" height="77" as="alternateBounds" />
          </mxGeometry>
        </mxCell>
        <mxCell id="F7s2ausXQMvFZWRs2rys-88" value="" style="shape=tableRow;horizontal=0;startSize=0;swimlaneHead=0;swimlaneBody=0;strokeColor=inherit;top=0;left=0;bottom=0;right=0;collapsible=0;dropTarget=0;fillColor=none;points=[[0,0.5],[1,0.5]];portConstraint=eastwest;fontSize=16;" vertex="1" parent="F7s2ausXQMvFZWRs2rys-83">
          <mxGeometry y="77" width="750" height="76" as="geometry" />
        </mxCell>
        <mxCell id="F7s2ausXQMvFZWRs2rys-89" value="Turno" style="shape=partialRectangle;html=1;whiteSpace=wrap;connectable=0;strokeColor=inherit;overflow=hidden;fillColor=none;top=0;left=0;bottom=0;right=0;pointerEvents=1;fontSize=16;" vertex="1" parent="F7s2ausXQMvFZWRs2rys-88">
          <mxGeometry width="251" height="76" as="geometry">
            <mxRectangle width="251" height="76" as="alternateBounds" />
          </mxGeometry>
        </mxCell>
        <mxCell id="F7s2ausXQMvFZWRs2rys-90" value="id, fecha, hora, paciente, médico, estado" style="shape=partialRectangle;html=1;whiteSpace=wrap;connectable=0;strokeColor=inherit;overflow=hidden;fillColor=none;top=0;left=0;bottom=0;right=0;pointerEvents=1;fontSize=16;" vertex="1" parent="F7s2ausXQMvFZWRs2rys-88">
          <mxGeometry x="251" width="248" height="76" as="geometry">
            <mxRectangle width="248" height="76" as="alternateBounds" />
          </mxGeometry>
        </mxCell>
        <mxCell id="F7s2ausXQMvFZWRs2rys-91" value="&lt;table&gt;&lt;tbody&gt;&lt;tr data-end=&quot;1005&quot; data-start=&quot;883&quot;&gt;&lt;td&gt;confirmar(), cancelar(), reprogramar()&lt;/td&gt;&lt;/tr&gt;&lt;/tbody&gt;&lt;/table&gt;&lt;table&gt;&lt;tbody&gt;&lt;tr data-end=&quot;1130&quot; data-start=&quot;1006&quot;&gt;&lt;td&gt;&lt;/td&gt;&lt;/tr&gt;&lt;/tbody&gt;&lt;/table&gt;" style="shape=partialRectangle;html=1;whiteSpace=wrap;connectable=0;strokeColor=inherit;overflow=hidden;fillColor=none;top=0;left=0;bottom=0;right=0;pointerEvents=1;fontSize=16;" vertex="1" parent="F7s2ausXQMvFZWRs2rys-88">
          <mxGeometry x="499" width="251" height="76" as="geometry">
            <mxRectangle width="251" height="76" as="alternateBounds" />
          </mxGeometry>
        </mxCell>
        <mxCell id="F7s2ausXQMvFZWRs2rys-92" value="" style="shape=tableRow;horizontal=0;startSize=0;swimlaneHead=0;swimlaneBody=0;strokeColor=inherit;top=0;left=0;bottom=0;right=0;collapsible=0;dropTarget=0;fillColor=none;points=[[0,0.5],[1,0.5]];portConstraint=eastwest;fontSize=16;" vertex="1" parent="F7s2ausXQMvFZWRs2rys-83">
          <mxGeometry y="153" width="750" height="77" as="geometry" />
        </mxCell>
        <mxCell id="F7s2ausXQMvFZWRs2rys-93" value="Administrativo" style="shape=partialRectangle;html=1;whiteSpace=wrap;connectable=0;strokeColor=inherit;overflow=hidden;fillColor=none;top=0;left=0;bottom=0;right=0;pointerEvents=1;fontSize=16;" vertex="1" parent="F7s2ausXQMvFZWRs2rys-92">
          <mxGeometry width="251" height="77" as="geometry">
            <mxRectangle width="251" height="77" as="alternateBounds" />
          </mxGeometry>
        </mxCell>
        <mxCell id="F7s2ausXQMvFZWRs2rys-94" value="Nombre del Adm" style="shape=partialRectangle;html=1;whiteSpace=wrap;connectable=0;strokeColor=inherit;overflow=hidden;fillColor=none;top=0;left=0;bottom=0;right=0;pointerEvents=1;fontSize=16;" vertex="1" parent="F7s2ausXQMvFZWRs2rys-92">
          <mxGeometry x="251" width="248" height="77" as="geometry">
            <mxRectangle width="248" height="77" as="alternateBounds" />
          </mxGeometry>
        </mxCell>
        <mxCell id="F7s2ausXQMvFZWRs2rys-95" value="&lt;table&gt;&lt;tbody&gt;&lt;tr data-end=&quot;1130&quot; data-start=&quot;1006&quot;&gt;&lt;td&gt;gestionarUsuarios(), gestionarTurnos()&lt;/td&gt;&lt;/tr&gt;&lt;/tbody&gt;&lt;/table&gt;&lt;table&gt;&lt;tbody&gt;&lt;tr data-end=&quot;1253&quot; data-start=&quot;1131&quot;&gt;&lt;td&gt;&lt;/td&gt;&lt;/tr&gt;&lt;/tbody&gt;&lt;/table&gt;" style="shape=partialRectangle;html=1;whiteSpace=wrap;connectable=0;strokeColor=inherit;overflow=hidden;fillColor=none;top=0;left=0;bottom=0;right=0;pointerEvents=1;fontSize=16;" vertex="1" parent="F7s2ausXQMvFZWRs2rys-92">
          <mxGeometry x="499" width="251" height="77" as="geometry">
            <mxRectangle width="251" height="77" as="alternateBounds" />
          </mxGeometry>
        </mxCell>
      </root>
    </mxGraphModel>
  </diagram>
</mxfile>
